REM DIRINDEX 1\2,1\4,1\5,1\6,1\7,1\3\8,1\3\9,1\3\10
REM DIRNAME folder01,folder02,folder03,folder04,folder05,folder06,folder07,folder08,folder09,folder10
TITLE ""
FILE "DB4500_5th_3B_20.mp3" MP3
  TRACK 01 AUDIO
    TITLE "8:cjc113_2520"
    INDEX 01 00:00:00
  TRACK 02 AUDIO
    TITLE "0:"
    INDEX 01 00:01:15
  TRACK 03 AUDIO
    TITLE "9:cjc113_2521"
    INDEX 01 00:01:40
  TRACK 04 AUDIO
    TITLE "0:"
    INDEX 01 00:02:71
  TRACK 05 AUDIO
    TITLE "10:cjc113_2522"
    INDEX 01 00:03:19
  TRACK 06 AUDIO
    TITLE "0:"
    INDEX 01 00:05:09
  TRACK 07 AUDIO
    TITLE "8:cjc113_2523"
    INDEX 01 00:05:54
  TRACK 08 AUDIO
    TITLE "0:"
    INDEX 01 00:07:05
  TRACK 09 AUDIO
    TITLE "9:cjc113_2524"
    INDEX 01 00:07:27
  TRACK 10 AUDIO
    TITLE "0:"
    INDEX 01 00:08:64
  TRACK 11 AUDIO
    TITLE "10:cjc113_2525"
    INDEX 01 00:09:12
  TRACK 12 AUDIO
    TITLE "0:"
    INDEX 01 00:12:05
  TRACK 13 AUDIO
    TITLE "8:cjc113_2526"
    INDEX 01 00:12:50
  TRACK 14 AUDIO
    TITLE "0:"
    INDEX 01 00:13:61
  TRACK 15 AUDIO
    TITLE "9:cjc113_2527"
    INDEX 01 00:14:07
  TRACK 16 AUDIO
    TITLE "0:"
    INDEX 01 00:15:30
  TRACK 17 AUDIO
    TITLE "10:cjc113_2528"
    INDEX 01 00:15:50
  TRACK 18 AUDIO
    TITLE "0:"
    INDEX 01 00:19:18
  TRACK 19 AUDIO
    TITLE "8:cjc113_2529"
    INDEX 01 00:19:65
  TRACK 20 AUDIO
    TITLE "0:"
    INDEX 01 00:21:06
  TRACK 21 AUDIO
    TITLE "9:cjc113_2530"
    INDEX 01 00:21:29
  TRACK 22 AUDIO
    TITLE "0:"
    INDEX 01 00:22:50
  TRACK 23 AUDIO
    TITLE "10:cjc113_2531"
    INDEX 01 00:22:72
  TRACK 24 AUDIO
    TITLE "0:"
    INDEX 01 00:25:31
  TRACK 25 AUDIO
    TITLE "8:cjc113_2532"
    INDEX 01 00:26:05
  TRACK 26 AUDIO
    TITLE "0:"
    INDEX 01 00:27:41
  TRACK 27 AUDIO
    TITLE "9:cjc113_2533"
    INDEX 01 00:27:65
  TRACK 28 AUDIO
    TITLE "0:"
    INDEX 01 00:29:44
  TRACK 29 AUDIO
    TITLE "10:cjc113_2534"
    INDEX 01 00:29:66
  TRACK 30 AUDIO
    TITLE "0:"
    INDEX 01 00:32:60
  TRACK 31 AUDIO
    TITLE "8:cjc113_2535"
    INDEX 01 00:33:28
  TRACK 32 AUDIO
    TITLE "0:"
    INDEX 01 00:34:45
  TRACK 33 AUDIO
    TITLE "9:cjc113_2536"
    INDEX 01 00:34:63
  TRACK 34 AUDIO
    TITLE "0:"
    INDEX 01 00:36:15
  TRACK 35 AUDIO
    TITLE "10:cjc113_2537"
    INDEX 01 00:36:33
  TRACK 36 AUDIO
    TITLE "0:"
    INDEX 01 00:39:70
  TRACK 37 AUDIO
    TITLE "8:cjc113_2538"
    INDEX 01 00:40:36
  TRACK 38 AUDIO
    TITLE "0:"
    INDEX 01 00:41:55
  TRACK 39 AUDIO
    TITLE "9:cjc113_2539"
    INDEX 01 00:41:73
  TRACK 40 AUDIO
    TITLE "0:"
    INDEX 01 00:43:23
  TRACK 41 AUDIO
    TITLE "10:cjc113_2540"
    INDEX 01 00:43:42
  TRACK 42 AUDIO
    TITLE "0:"
    INDEX 01 00:47:09
  TRACK 43 AUDIO
    TITLE "8:cjc113_2541"
    INDEX 01 00:47:48
  TRACK 44 AUDIO
    TITLE "0:"
    INDEX 01 00:48:67
  TRACK 45 AUDIO
    TITLE "9:cjc113_2542"
    INDEX 01 00:49:12
  TRACK 46 AUDIO
    TITLE "0:"
    INDEX 01 00:50:11
  TRACK 47 AUDIO
    TITLE "10:cjc113_2543"
    INDEX 01 00:50:31
  TRACK 48 AUDIO
    TITLE "0:"
    INDEX 01 00:53:29
  TRACK 49 AUDIO
    TITLE "8:cjc113_2544"
    INDEX 01 00:53:70
  TRACK 50 AUDIO
    TITLE "0:"
    INDEX 01 00:55:34
  TRACK 51 AUDIO
    TITLE "9:cjc113_2545"
    INDEX 01 00:55:53
  TRACK 52 AUDIO
    TITLE "0:"
    INDEX 01 00:57:11
  TRACK 53 AUDIO
    TITLE "10:cjc113_2546"
    INDEX 01 00:57:31
  TRACK 54 AUDIO
    TITLE "0:"
    INDEX 01 01:00:53
  TRACK 55 AUDIO
    TITLE "8:cjc113_2547"
    INDEX 01 01:01:23
  TRACK 56 AUDIO
    TITLE "0:"
    INDEX 01 01:02:46
  TRACK 57 AUDIO
    TITLE "9:cjc113_2548"
    INDEX 01 01:02:69
  TRACK 58 AUDIO
    TITLE "0:"
    INDEX 01 01:04:37
  TRACK 59 AUDIO
    TITLE "10:cjc113_2549"
    INDEX 01 01:04:58
  TRACK 60 AUDIO
    TITLE "0:"
    INDEX 01 01:08:21
  TRACK 61 AUDIO
    TITLE "8:cjc113_2550"
    INDEX 01 01:08:68
  TRACK 62 AUDIO
    TITLE "0:"
    INDEX 01 01:10:00
  TRACK 63 AUDIO
    TITLE "9:cjc113_2551"
    INDEX 01 01:10:16
  TRACK 64 AUDIO
    TITLE "0:"
    INDEX 01 01:11:39
  TRACK 65 AUDIO
    TITLE "10:cjc113_2552"
    INDEX 01 01:11:56
  TRACK 66 AUDIO
    TITLE "0:"
    INDEX 01 01:14:27
